<?xml version="1.0" encoding="UTF-8"?>
<svg version="1.1" viewBox="0 0 1600 1600" width="1280" height="1280" xmlns="http://www.w3.org/2000/svg">
<path transform="translate(473 439)" d="m0 0c0.741-0.00467 1.48-0.00935 2.24-0.0142 5.19 0.016 5.19 0.016 6.32 1.14 1.58 0.134 3.17 0.204 4.75 0.246 0.993 0.0315 1.99 0.063 3.01 0.0955 1.07 0.0317 2.14 0.0633 3.24 0.0959 12.7 0.452 25.1 1.35 37.6 4.07 2.93 0.594 5.86 1.01 8.82 1.43 5.29 0.793 10.4 1.92 15.6 3.27 3.28 0.847 6.56 1.6 9.86 2.35 4.44 1.02 8.81 2.16 13.2 3.44 1.96 0.483 3.92 0.962 5.88 1.44 4.26 1.06 8.4 2.25 12.5 3.69 2.68 0.906 5.39 1.73 8.1 2.56 6.95 2.12 13.8 4.48 20.5 7.08 4.53 1.73 9.08 3.3 13.7 4.8 5.45 1.79 10.7 3.8 16 6.06 3.23 1.35 6.49 2.62 9.77 3.86 8.2 3.13 16.2 6.57 24.1 10.4 4.76 2.26 9.55 4.46 14.3 6.67 4.26 1.97 8.52 3.96 12.8 5.94 2.05 0.952 4.09 1.9 6.14 2.85 25.1 11.7 49.1 25.2 73.1 39.1 0.955 0.555 1.91 1.11 2.9 1.68 8.48 4.96 16.8 10.1 24.9 15.7 0.829 0.563 1.66 1.13 2.51 1.71 0.594 0.489 1.19 0.977 1.8 1.48v2h4c1.75 2 1.75 2 3 4-4.41-0.401-6.96-2.2-10.4-4.84-1.76-1.35-1.76-1.35-4.65-2.16v-2c-2.97-0.99-5.94-1.98-9-3v-2c-1.27-0.381-1.27-0.381-2.56-0.77-3.69-1.32-7.02-3.03-10.4-4.92-7.25-3.94-14.6-7.66-22-11.3v-2c-1.16-0.33-2.31-0.66-3.5-1-6.16-2.04-11.8-5.07-17.6-8.01-4.13-2.1-8.33-4.02-12.6-5.91-2.24-1.02-4.44-2.1-6.64-3.21-3.52-1.78-7.1-3.37-10.8-4.88-1.96-0.812-3.92-1.62-5.88-2.44-1.57-0.65-1.57-0.65-3.16-1.31-2.43-1.02-4.82-2.09-7.21-3.19-7.39-3.32-15.1-5.97-22.7-8.77-3.67-1.36-7.31-2.78-10.9-4.26-5.07-2.04-10.2-3.82-15.4-5.53-1.37-0.453-1.37-0.453-2.76-0.915-9.52-3.13-19.1-6.15-28.9-8.09-2.06-0.492-2.06-0.492-4.75-1.43-4.08-1.31-8.18-2.16-12.4-3-5.55-1.13-11.1-2.32-16.6-3.69-5.89-1.4-11.8-2.12-17.8-2.73-5.37-0.553-5.37-0.553-7.56-1.65-2.48-0.237-4.94-0.418-7.43-0.551-0.754-0.0418-1.51-0.0837-2.29-0.127-7.97-0.409-15.9-0.509-23.9-0.508-2.43-0.0022-4.85-0.0205-7.28-0.0393-14.1-0.0523-27.7 1.38-41.5 4.6-1.35 0.294-1.35 0.294-2.73 0.594-8.53 1.95-16 5.45-23.6 9.59-1.08 0.579-2.16 1.16-3.27 1.75-2.88 1.58-2.88 1.58-5.18 3.4-1.74 1.29-1.74 1.29-3.74 1.29v2c-0.589 0.251-1.18 0.503-1.79 0.762-2.49 1.39-3.84 2.86-5.65 5.05-2.02 2.4-4 4.62-6.25 6.81-2.47 2.39-2.47 2.39-4.5 5.69-0.598 0.887-1.2 1.77-1.81 2.69h-2c-0.17 0.557-0.34 1.11-0.516 1.69-1.25 3.93-2.57 7.65-4.48 11.3-6.2 12-7.39 25.3-7.38 38.7 8.86e-4 1.15 0.00177 2.3 0.00269 3.48 0.213 15.9 2.44 31.7 7.37 46.8 0.388 1.22 0.776 2.44 1.18 3.7 8.44 25.5 19.5 49.3 32.9 72.5 0.887 1.77 0.887 1.77 0.887 3.77h2c0.568 1.04 1.14 2.08 1.72 3.15 3.9 7.07 7.83 13.9 12.6 20.5 2.5 3.51 4.75 7.17 7.02 10.8 1.75 2.66 3.67 5.08 5.68 7.54 1.47 1.93 2.92 3.87 4.38 5.81 0.79 1.06 1.58 2.11 2.39 3.2 1.29 1.73 2.58 3.46 3.87 5.2 6.31 8.49 13 16.6 19.9 24.6 2.89 3.35 5.7 6.75 8.42 10.2 4.09 5.18 8.55 9.96 13.1 14.8 2.55 2.72 5.03 5.5 7.51 8.29 4.25 4.76 8.76 9.2 13.3 13.6 2.09 2.25 2.09 2.25 2.09 4.25 0.812 0.325 0.812 0.325 1.64 0.656 3.18 1.81 5.57 4.26 8.11 6.84 0.507 0.499 1.01 0.998 1.54 1.51 3.71 3.73 3.71 3.73 3.71 5.99 0.581 0.254 1.16 0.509 1.76 0.771 2.48 1.36 4.09 2.87 6.07 4.9 0.718 0.729 1.44 1.46 2.18 2.21 0.741 0.762 1.48 1.52 2.25 2.31 4.79 4.91 9.61 9.66 14.8 14.1 3.19 2.78 6.24 5.71 9.31 8.62 4.94 4.65 9.95 9.06 15.3 13.2 2.45 1.96 4.75 4.03 7.06 6.16 5.06 4.61 10.4 8.79 15.8 13 3.13 2.43 6.21 4.93 9.27 7.45 7.84 6.45 15.9 12.6 24 18.6 3.15 2.36 6.3 4.72 9.39 7.15 8.58 6.73 17.5 12.9 26.5 19 3 2.04 5.98 4.11 8.96 6.18 10.7 7.43 21.6 14.6 32.6 21.6 0.915 0.587 1.83 1.17 2.77 1.78 4.89 3.11 9.82 6.07 14.9 8.85 2.33 1.27 4.61 2.62 6.88 4 1.1 0.663 1.1 0.663 2.21 1.34 1.66 1 3.31 2.01 4.97 3.01 6.57 3.98 13.2 7.78 19.9 11.5 1.1 0.613 2.19 1.23 3.32 1.86 12.9 7.17 25.9 14 39 20.6 2.87 1.42 5.72 2.87 8.57 4.33 4.84 2.42 9.79 4.56 14.8 6.71 4.69 2.03 9.32 4.16 13.9 6.36 5.58 2.64 11.2 4.97 17 7.13 3.61 1.36 7.18 2.8 10.7 4.25 6.04 2.44 12.1 4.68 18.3 6.84 3.04 1.07 6.07 2.17 9.1 3.28 8.28 3.01 16.6 5.63 25.1 8.07 3.15 0.915 6.27 1.85 9.38 2.89 2.25 0.747 4.42 1.35 6.73 1.84l2.3 0.496c2.06 0.432 4.12 0.861 6.18 1.29 1.22 0.257 2.45 0.513 3.71 0.777 1.72 0.356 1.72 0.356 3.48 0.719 3.33 0.781 3.33 0.781 6.34 1.81 3.26 1.05 6.35 1.54 9.75 1.97 4.06 0.519 8.04 1.15 12 2 5.26 1.07 10.5 1.62 15.8 2.07 0.948 0.0831 1.9 0.166 2.87 0.252 7.19 0.615 14.4 1.08 21.6 1.44 2.92 0.246 2.92 0.246 4.92 1.25 2.7 0.0979 5.36 0.139 8.06 0.125 0.746 0.00387 1.49 0.00773 2.26 0.0117 3.64 0.335 3.64 0.335 6.68-1.14 1.72-0.204 3.45-0.348 5.18-0.465 1.61-0.117 1.61-0.117 3.26-0.236 2.25-0.155 4.51-0.309 6.76-0.461 27.3-1.99 53.8-11.6 72.8-31.8 11.6-14 16.9-30.1 19-48h3c0.33-1.32 0.66-2.64 1-4-0.119 4.86-0.243 9.71-0.372 14.6-0.0431 1.65-0.0848 3.3-0.125 4.95-0.0582 2.38-0.122 4.76-0.186 7.14-0.0167 0.729-0.0334 1.46-0.0506 2.21-0.19 6.68-1.01 12.8-3.27 19.1-0.606 2.06-1.21 4.12-1.81 6.19-3.04 9.88-7.15 18.4-13.2 26.8-0.438 0.643-0.877 1.29-1.33 1.95-5.03 7.12-11.7 15.3-19.7 19.1-1.02 0.975-2.03 1.98-3 3-4.07 3.24-8.27 5.82-13 8-0.803 0.392-1.61 0.784-2.43 1.19-5.59 2.66-11 4.63-17 6.13-2.26 0.607-4.32 1.35-6.48 2.25-4.3 1.7-8.7 2.29-13.2 2.97-2.97 0.435-2.97 0.435-6.38 1.53-8.37 2.28-17.3 2.1-25.9 2.11-1.06 0.00333-2.13 0.00666-3.23 0.0101-2.24 0.00503-4.49 0.00741-6.73 0.00725-3.35 0.00217-6.71 0.0203-10.1 0.0393-10.6 0.0282-21.1-0.17-31.6-1.11-1.31-0.117-1.31-0.117-2.64-0.236-4.86-0.487-9.55-1.28-14.3-2.42-3.01-0.689-6.05-1.06-9.11-1.45-4.8-0.657-9.23-1.62-13.9-3-2-0.352-4-0.684-6-1-4.46-0.71-8.67-1.69-13-3-2.23-0.503-4.46-0.978-6.69-1.44-2.31-0.563-2.31-0.563-4.91-1.44-5.65-1.86-11.4-3.3-17.2-4.82-5.56-1.49-10.9-3.22-16.2-5.3-2.14-0.687-4.29-1.36-6.44-2-6.82-2.07-13.6-4.17-20.2-6.85-5.22-2.1-10.5-4.1-15.8-6.09-7.6-2.88-15.1-5.88-22.6-9.06-2.08-0.854-4.17-1.71-6.25-2.56-3.95-1.64-7.78-3.4-11.6-5.35-3.83-1.92-7.73-3.67-11.6-5.46-4.86-2.23-9.7-4.49-14.5-6.76-2.86-1.34-5.72-2.66-8.59-3.98-1.53-0.711-3.07-1.42-4.6-2.13-1.08-0.494-1.08-0.494-2.18-0.998-3.54-1.65-6.51-3.39-9.63-5.75-2.45-1.27-4.89-2.49-7.38-3.69-6.61-3.24-13-6.73-19.4-10.4-3.85-2.22-7.75-4.35-11.7-6.46-6.19-3.39-12.3-6.97-18.3-10.5-1.13-0.663-1.13-0.663-2.29-1.34-0.726-0.427-1.45-0.853-2.2-1.29-0.652-0.383-1.3-0.766-1.98-1.16-1.62-0.982-3.21-2.03-4.79-3.08v-2c-1.09-0.289-2.19-0.577-3.31-0.875-3.69-1.12-3.69-1.12-6.69-3.12v-2c-0.825-0.227-1.65-0.454-2.5-0.688-4.17-1.56-8-3.54-11.5-6.31v-2c-0.877-0.25-1.75-0.5-2.66-0.758-3.49-1.3-5.89-2.87-8.84-5.12-4.91-3.71-9.93-7.15-15.1-10.4-0.612-0.384-1.22-0.768-1.86-1.16-1.27-0.794-2.54-1.58-3.81-2.37-1.6-1.01-3.14-2.09-4.68-3.18v-2c-0.887-0.248-1.77-0.495-2.69-0.75-3.53-1.33-5.41-2.87-8.31-5.25-2.48-1.86-4.99-3.68-7.5-5.5-4.24-3.08-8.42-6.21-12.5-9.5-1.97-1.51-3.95-3.01-5.94-4.5-1.5-1.13-1.5-1.13-3.03-2.28-2.12-1.55-4.21-2.97-6.41-4.38-0.865-0.608-1.73-1.22-2.62-1.84v-2c-0.701-0.227-1.4-0.454-2.12-0.688-3.48-1.59-6.06-3.79-8.88-6.31-5.16-4.6-10.4-9.02-15.8-13.4-1.04-0.847-1.04-0.847-2.11-1.71-3.1-2.51-6.2-5.01-9.31-7.51-4.69-3.79-9.09-7.62-13.3-12-1.95-1.86-4.18-3.09-6.5-4.43v-2h-2v-2l-1.78-0.785c-2.37-1.3-3.86-2.69-5.72-4.65-1.93-2-3.7-3.71-5.94-5.38-0.516-0.392-1.03-0.784-1.56-1.19v-2c-0.833-0.34-0.833-0.34-1.68-0.688-2.98-1.69-5-3.85-7.38-6.31-2.59-2.68-4.83-4.93-7.94-7v-2c-0.548-0.224-1.1-0.447-1.66-0.678-3.04-1.72-5.32-4.02-7.76-6.48-0.505-0.503-1.01-1.01-1.53-1.52-1.06-1.06-2.12-2.12-3.18-3.19-1.62-1.63-3.26-3.26-4.89-4.88-1.03-1.03-2.06-2.06-3.09-3.1-0.491-0.487-0.981-0.973-1.49-1.47-3.4-3.45-3.4-3.45-3.4-5.68-0.99-0.33-1.98-0.66-3-1-1.55-1.56-1.55-1.56-3.2-3.54-3.73-4.4-7.64-8.59-11.6-12.8-8.56-9.06-17-18.1-24.9-27.8-2.04-2.5-4.12-4.95-6.22-7.4-6.5-7.57-12.6-15.4-18.6-23.4-1.08-1.43-2.16-2.84-3.26-4.26-0.55-0.715-1.1-1.43-1.67-2.17-0.501-0.645-1-1.29-1.52-1.96-1.09-1.66-1.09-1.66-1.09-3.66h-2c-1.16-1.48-1.16-1.48-2.5-3.62-2.69-4.18-5.52-8.22-8.44-12.2-3.6-5-7.02-10.1-10.3-15.3-1.7-2.71-3.43-5.4-5.17-8.09-4-6.18-7.89-12.4-11.6-18.8-0.414-0.681-0.828-1.36-1.25-2.06-2.75-4.59-2.75-4.59-2.75-7.94h-2c-0.268-0.548-0.536-1.1-0.812-1.66-2.3-4.65-4.67-9.25-7.15-13.8-10-18.5-10-18.5-10-25.5h-2c-2.96-6.71-5.54-13.3-7.23-20.4-0.922-3.06-2.33-5.72-3.77-8.57-3.35-8.79-5.06-17.9-6.69-27.1-0.235-1.32-0.235-1.32-0.475-2.66-0.137-0.792-0.274-1.58-0.415-2.4-0.248-1.84-0.248-1.84-1.42-2.83-2.14-10.1-2.31-20.2-2.26-30.5 0.0108-2.49-2.87e-5 -4.98-0.0127-7.47 0.00132-1.6 0.00388-3.21 0.00781-4.81-0.00607-1.1-0.00607-1.1-0.0123-2.23 0.0397-4.37 0.698-7.89 2.28-12 0.472-1.7 0.93-3.41 1.38-5.12 2.66-9.79 5.8-18.9 10.6-27.9h2c0.0412-0.681 0.0825-1.36 0.125-2.06 1.06-3.56 2.74-5.35 5.21-8.05 1.64-1.86 3.01-3.78 4.41-5.82 5.27-7.12 12.6-11.8 20.2-16.1 0.713-0.721 0.713-0.721 1.44-1.46 5.58-5.52 14.4-8.51 21.6-11.5 0.782-0.339 1.56-0.678 2.37-1.03 15.7-6.26 32.9-8.73 49.6-9.97l2.1-0.171c7.78-0.629 15.5-0.92 23.3-0.954zm-2.44 1.12v1h10v-1h-10zm31 2 4 1zm-174 93 1 4zm873 493 1 2zm-133 81v1h6v-1h-6zm25 0v1h5v-1h-5z" fill="#FBFCFE"/>
<path transform="translate(1188,651)" d="m0 0c0.767 0.243 1.53 0.487 2.33 0.738 17.5 5.66 34.3 13.8 48.7 25.3 2.21 1.59 4.42 3.18 6.64 4.77 0.45 0.405 0.9 0.81 1.36 1.23v2c0.866 0.375 0.866 0.375 1.75 0.758 2.55 1.41 4.23 3.02 6.25 5.12 0.66 0.678 1.32 1.36 2 2.05 0.66 0.683 1.32 1.37 2 2.07 0.646 0.624 1.29 1.25 1.96 1.89 13.5 13.9 22.9 31.3 30 49.1 0.528 1.31 0.528 1.31 1.07 2.65 2.58 6.72 4.34 13.6 6 20.6 0.599 2.45 1.25 4.88 1.98 7.29 3.44 12.7 3.16 26.2 3.2 39.2 0.00518 0.688 0.0104 1.38 0.0157 2.08 0.181 30.6-6.78 60.3-21.3 87.2-0.543 1.04-1.09 2.07-1.64 3.14-3.37 6.13-7.33 11.6-11.7 17.1-0.528 0.669-1.06 1.34-1.6 2.03-1.31 1.62-2.69 3.18-4.09 4.72h-2c-0.268 0.804-0.536 1.61-0.812 2.44-0.392 0.846-0.784 1.69-1.19 2.56-0.99 0.33-1.98 0.66-3 1-0.309 0.66-0.619 1.32-0.938 2-0.351 0.66-0.701 1.32-1.06 2-1.33 0.333-2.67 0.667-4 1-0.254 0.574-0.508 1.15-0.77 1.74-9.34 17.2-41.8 27.9-59.2 33.3-1.15 0.36-2.3 0.719-3.49 1.09-14.4 4.33-28.5 6.49-43.5 6.91-0.741 0.0272-1.48 0.0545-2.25 0.0825-10.8 0.367-21.4-0.253-32.2-1.33-1.15-0.109-2.3-0.218-3.48-0.331-8.07-0.885-15.4-2.81-23.1-5.42-0.87-0.281-1.74-0.561-2.64-0.851-22.2-7.16-40.8-17.7-58.9-32.4-0.541-0.437-1.08-0.874-1.64-1.32-1.33-1.1-2.6-2.26-3.86-3.43v-2c-0.557-0.227-1.11-0.454-1.69-0.688-6.14-3.48-10.1-9.79-14.3-15.3-0.495-0.628-0.99-1.26-1.5-1.9-3.19-4.1-6.05-8.39-8.81-12.8-1.02-1.61-1.02-1.61-2.05-3.26-1.5-2.8-2.24-4.92-2.64-8.05h-2c-1.23-3.2-2.47-6.4-3.69-9.61-0.739-1.91-1.49-3.82-2.27-5.72-1.99-4.88-2.69-9.47-3.04-14.7h-2c-0.99-4.95-1.98-9.9-3-15h-1c-3.59-27.8-5.54-61.1 4-88 0.442-1.71 0.879-3.42 1.31-5.12 1.69-6.23 4.06-12 6.69-17.9 0.301-0.702 0.603-1.4 0.914-2.13 5.01-11.6 11-21.4 18.9-31.3 1.6-2.09 2.89-4.33 4.22-6.6 2.56-2.81 2.56-2.81 5-5h2c0.0928-0.857 0.0928-0.857 0.188-1.73 1.16-3.24 3.12-4.48 5.81-6.58 1.49-1.17 1.49-1.17 3-2.37 1.48-1.15 1.48-1.15 3-2.32 0.855-0.683 1.71-1.37 2.59-2.07 5.87-4.67 5.87-4.67 8.48-5.93 2.1-1.08 3.28-2.33 4.93-4 9.96-6.69 20.9-11.6 32-16 0.908-0.362 1.82-0.724 2.75-1.1 5.94-2.27 11.9-3.86 18.1-5.19 2.22-0.503 4.43-1.09 6.62-1.73 27.8-7.78 63.2-4.78 90.5 4.02zm-82.2 78.4c-1.15 0.4-2.3 0.799-3.48 1.21-3.45 1.46-6.28 3.26-9.33 5.41-1.67 1-3.33 2-5 3-2.04 1.27-4.05 2.59-6 4v2c-0.75 0.238-1.5 0.477-2.27 0.723-3.15 1.48-4.34 2.91-6.35 5.71-3.19 4.38-3.19 4.38-4.91 6.07-5.86 5.97-9.31 14.9-12.5 22.5-0.449 1.07-0.449 1.07-0.906 2.17-8.45 22.5-6.09 52.9 2.91 74.8 4.65 9.27 10.4 17.9 18 25 0.516 0.509 1.03 1.02 1.56 1.54 6.37 6 13.8 10.2 21.4 14.5 0.794 0.447 1.59 0.895 2.41 1.36 17.4 8.73 41.3 7.58 59.6 2.64 3.17-1.09 6.04-2.46 9-4 1.38-0.596 1.38-0.596 2.79-1.2 10.9-4.92 18.7-12.6 26.2-21.8 0.525-0.498 1.05-0.995 1.59-1.51 2.09-2.21 3.45-4.74 4.97-7.37 0.599-1.03 1.2-2.06 1.82-3.12 1.42-2.64 2.58-5.2 3.62-8.01l0.781-2c2.05-5.71 3-11.4 3.79-17.4 0.43-2.62 0.43-2.62 1.43-3.62 0.0886-2.74 0.115-5.45 0.0977-8.19-0.00141-0.82-0.00283-1.64-0.00429-2.48-0.00562-2.63-0.0182-5.26-0.0309-7.89-0.00501-1.78-0.00958-3.56-0.0137-5.33-0.011-4.37-0.0283-8.74-0.0488-13.1h-1c-0.205-1.05-0.41-2.1-0.621-3.18-0.272-1.38-0.544-2.76-0.816-4.14-0.135-0.69-0.269-1.38-0.408-2.09-0.582-2.94-1.21-5.75-2.15-8.6h-2c-0.102-0.695-0.204-1.39-0.309-2.11-0.809-3.39-2.16-6.12-3.75-9.21-0.548-1.07-1.1-2.14-1.66-3.24-0.422-0.808-0.843-1.62-1.28-2.45h-2c-0.249-0.726-0.498-1.45-0.754-2.2-5.84-13.1-20.8-21.2-33.2-26.8-0.868-0.392-1.74-0.784-2.63-1.19-9.85-4.19-19.3-5.14-29.9-5.06-1.07-0.00773-2.14-0.0155-3.25-0.0234-9.11 0.0223-16.8 1.61-25.4 4.65zm-132 25.6 1 2zm-4 15 1 2zm246 63 1 3zm-249 9 1 2z" fill="#FCFDFF"/>
<path transform="translate(708 645)" d="m0 0c0.777 0.00562 1.55 0.0112 2.35 0.017 0.818-0.0019 1.64-0.0038 2.48-0.00575 2.71-0.00371 5.42 7e-3 8.13 0.0182 1.88 0.00119 3.76 0.00165 5.63 0.00139 3.94 0.00157 7.88 0.00986 11.8 0.0233 5.06 0.017 10.1 0.0208 15.2 0.0201 3.88 2.71e-4 7.76 0.00575 11.6 0.013 1.87 0.00319 3.73 0.00516 5.6 0.00589 2.6 0.00216 5.21 0.0109 7.81 0.0216 0.779-4.53e-4 1.56-9.06e-4 2.36-0.00137 5.32 0.0322 5.32 0.0322 6.43 1.15 0.108 1.67 0.147 3.34 0.158 5.02 0.00979 1.09 0.0196 2.17 0.0297 3.29 0.00576 1.2 0.0115 2.41 0.0174 3.64 0.0099 1.26 0.0198 2.52 0.03 3.81 0.0271 3.46 0.0481 6.92 0.068 10.4 0.0218 3.61 0.0492 7.23 0.0761 10.8 0.05 6.85 0.0949 13.7 0.138 20.5 0.0493 7.79 0.104 15.6 0.16 23.4 0.114 16 0.221 32.1 0.323 48.1 3.15-0.148 6.3-0.3 9.45-0.453 1.32-0.0621 1.32-0.0621 2.67-0.125 17.5-0.853 37.9-2.11 50.9-15.4 1.03-0.763 2.06-1.53 3.12-2.31 5.63-4.79 9.18-11.4 12.9-17.7 0.447-0.74 0.895-1.48 1.36-2.24 3.8-7.25 4.27-15.9 5.32-23.9 0.325-1.83 0.325-1.83 1.33-3.83 1.13-7.37 1.26-14.9 1.5-22.3 0.0833-2.33 0.167-4.67 0.25-7 0.127-3.65 0.252-7.3 0.375-10.9 0.121-3.54 0.248-7.08 0.375-10.6 0.0354-1.1 0.0709-2.2 0.107-3.34 0.0367-1.01 0.0735-2.02 0.111-3.06 0.0303-0.891 0.0606-1.78 0.0918-2.7 0.189-2.03 0.189-2.03 1.19-3.03 1.37-0.158 2.76-0.251 4.14-0.316 1.31-0.0631 1.31-0.0631 2.65-0.127 0.957-0.0392 1.91-0.0783 2.9-0.119 1-0.0417 2.01-0.0835 3.04-0.126 16.9-0.649 33.8-0.303 50.7 0.0633 1.95 0.0421 3.89 0.0829 5.84 0.122 2.75 0.0571 5.5 0.121 8.26 0.187 0.844 0.0167 1.69 0.0334 2.56 0.0507 5.84 0.151 5.84 0.151 6.95 1.27 0.099 1.81 0.128 3.61 0.129 5.42 0.00315 1.16 0.0063 2.32 0.00955 3.51-0.00304 1.89-0.00304 1.89-0.00613 3.82 0.00144 1.93 0.00144 1.93 0.0029 3.89 0.00148 2.72-6.76e-4 5.44-0.00534 8.16-0.0057 3.49-0.00242 6.99 0.00357 10.5 0.00447 3.32 0.00135 6.64-0.00113 9.97 0.00202 1.26 0.00405 2.52 0.00613 3.82-0.00315 1.16-0.0063 2.32-0.00955 3.51-0.00119 1.54-0.00119 1.54-0.00241 3.11-0.127 2.32-0.127 2.32-1.13 3.32-0.192 1.52-0.324 3.04-0.43 4.57-0.107 1.43-0.107 1.43-0.217 2.89-0.0754 1.03-0.151 2.05-0.229 3.11-1.79 22.4-7.75 42.5-18.1 62.4h-2c-0.206 0.804-0.413 1.61-0.625 2.44-2.62 6.79-6.86 12.8-12.4 17.6h-2c-0.249 0.587-0.498 1.17-0.754 1.78-1.42 2.53-2.96 3.93-5.18 5.79-2.82 2.35-2.82 2.35-5.47 4.89-2.22 2.15-4.66 3.91-7.16 5.73-0.971 0.715-1.94 1.43-2.94 2.17-2.5 1.64-2.5 1.64-4.5 1.64 0.502 5.43 2.45 8.99 5.25 13.5 0.63 1.05 0.63 1.05 1.27 2.11 1.34 2.21 2.68 4.42 4.03 6.62 1.35 2.22 2.7 4.44 4.05 6.66 0.835 1.38 1.68 2.76 2.52 4.13 2.87 4.73 2.87 4.73 2.87 6.95h2c0.66 1.98 1.32 3.96 2 6h2c0.257 0.476 0.513 0.951 0.777 1.44 5.34 9.76 11.1 19.3 17.1 28.7 1.38 2.21 2.71 4.45 4.04 6.69 3.27 5.47 6.69 10.8 10.1 16.2 4.44 6.94 8.81 13.9 13.1 21 1.9 3.06 3.89 6.05 5.89 9.04 2.37 3.82 4.53 7.74 6.66 11.7 1.27 2.3 1.27 2.3 2.77 4.21 3.25 4.35 3.82 7.4 3.7 12.9-0.0197 1.17-0.0395 2.34-0.0598 3.54-0.0381 1.33-0.0381 1.33-0.0769 2.69-7.96 0.133-15.9 0.264-23.9 0.391-3.7 0.0593-7.4 0.119-11.1 0.182-1.43 0.024-2.86 0.0479-4.29 0.0718-0.709 0.0118-1.42 0.0237-2.15 0.0359-5.73 0.0936-11.5 0.162-17.2 0.226-4.31 0.0526-8.62 0.148-12.9 0.276-2.78 0.0777-5.56 0.131-8.33 0.181-1.93 0.0424-3.86 0.116-5.78 0.19-8.32 0.12-8.32 0.12-11.2-1.72-1.31-1.51-1.31-1.51-3.19-4.83-0.862-1.38-0.862-1.38-1.74-2.79-0.516-0.94-1.03-1.88-1.56-2.85-0.584-1.05-1.17-2.11-1.77-3.2-0.594-1.09-1.19-2.18-1.8-3.3-1.18-2.15-2.37-4.3-3.55-6.45-0.88-1.59-0.88-1.59-1.78-3.22-3.27-5.85-6.67-11.6-10.1-17.4-1.04-1.75-2.06-3.51-3.09-5.27-0.668-1.13-1.34-2.27-2.02-3.43-1.44-2.82-2.19-5.01-2.6-8.13h-2c-0.364-0.678-0.727-1.36-1.1-2.05-2.54-4.71-5.12-9.37-7.9-13.9-2.6-4.28-5.01-8.64-7.39-13.1-1.73-3.15-3.51-6.27-5.3-9.39-3.47-6.06-6.91-12.1-10.3-18.2-0.493-0.874-0.987-1.75-1.49-2.65-0.455-0.821-0.911-1.64-1.38-2.49-0.41-0.733-0.82-1.47-1.24-2.22-0.883-1.95-0.883-1.95-0.883-4.95-4.48 0.0937-8.97 0.2-13.5 0.317-1.52 0.0382-3.05 0.0731-4.57 0.104-2.19 0.0458-4.39 0.104-6.58 0.164-1.02 0.0173-1.02 0.0173-2.06 0.035-3.88 0.12-5.74 0.583-9.33 2.38v125c-4.37-0.874-5.76-1.23-9.12-3.62-3.52-2.44-7.07-4.82-10.7-7.12-0.893-0.572-1.79-1.14-2.71-1.73-2.12-1.3-4.24-2.45-6.48-3.52v-2c-1.21-0.309-1.21-0.309-2.44-0.625-4.62-1.78-8.72-4.24-12.6-7.38v-2c-1.42-0.464-1.42-0.464-2.88-0.938-3.12-1.06-3.12-1.06-5.12-2.06v-2c-0.681-0.229-1.36-0.459-2.06-0.695-3.68-1.63-6.7-3.81-9.94-6.18-0.603-0.434-1.21-0.869-1.83-1.32-3.47-2.51-6.84-5.12-10.2-7.81-2.27-1.71-4.54-3.42-6.82-5.12-5.82-5.01-5.82-5.01-6.55-8.76-0.141-2.33-0.152-4.63-0.121-6.97-0.00412-0.893-0.00825-1.79-0.0125-2.7-0.00893-2.99 0.0107-5.99 0.0303-8.98-5.09e-4 -2.15-0.00277-4.3-0.00664-6.44-0.00543-5.85 0.0141-11.7 0.0381-17.5 0.0214-6.17 0.0207-12.3 0.0227-18.5 0.00688-11.1 0.0317-22.1 0.0652-33.2 0.0376-12.5 0.0521-25.1 0.0612-37.6 0.00844-11.5 0.0257-23 0.045-34.4 4e-3 -2.43 0.00775-4.86 0.0112-7.28 0.036-25 0.139-49.9 0.567-74.9 0.0368-2.18 0.0704-4.37 0.101-6.55 0.0432-2.99 0.0991-5.99 0.159-8.98 0.0108-0.89 0.0216-1.78 0.0327-2.7 0.163-6.9 0.873-8.54 7.94-8.58zm-7.57 51.3 1 2zm175 15 1 3zm-175 58v6h1v-6h-1z" fill="#FBFCFE"/>
<path transform="translate(437,418)" d="m0 0c2.54 0.0909 5.04 0.237 7.56 0.438 1.07 0.0783 1.07 0.0783 2.15 0.158 1.76 0.13 3.52 0.267 5.28 0.404v1c-1.13 0.133-2.26 0.266-3.43 0.402-1.48 0.178-2.96 0.357-4.45 0.535-1.12 0.131-1.12 0.131-2.26 0.264-4.06 0.432-4.06 0.432-7.86 1.8-1.09-0.0206-2.19-0.0412-3.31-0.0625-3.67 0.0621-5.37 0.719-8.69 2.06-1.33 0.179-2.66 0.321-4 0.438-7.63 0.726-15.3 2.39-22.4 5.19-3.24 1.25-6.12 1.95-9.56 2.38v2c-0.594 0.219-1.19 0.438-1.8 0.664-22.8 8.74-42.1 23.9-55 44.7-0.405 0.534-0.81 1.07-1.23 1.62h-2c-0.99 2.97-1.98 5.94-3 9h-2c-0.182 0.629-0.364 1.26-0.551 1.91-1.2 4.08-2.41 8.13-3.95 12.1-2.86 7.48-4.81 14.9-6.07 22.8-0.43 2.15-0.43 2.15-1.43 3.15-1.37 7.91-1.19 16.1-1.19 24.1 8.06e-4 1.28 0.00161 2.56 0.00244 3.87 0.0779 12.1 0.831 23.4 4.19 35.1 0.507 2.58 0.988 5.16 1.44 7.75 1.6 8.83 3.84 17.3 6.75 25.8 0.979 2.94 1.86 5.91 2.75 8.88 2.98 9.83 2.98 9.83 7.55 19 1.6 2.72 2.64 5.36 3.7 8.33 4.19 11.1 9.14 22 15.4 32.1 2.77 4.44 5.25 9.07 7.69 13.7 3.55 6.67 7.49 13 11.6 19.3 5.05 7.79 5.05 7.79 5.05 10.2h2c1.18 1.57 1.18 1.57 2.44 3.69 0.436 0.728 0.871 1.46 1.32 2.21 0.41 0.695 0.82 1.39 1.24 2.11 0.598 0.949 1.2 1.9 1.81 2.88 1.19 2.12 1.19 2.12 1.19 4.12h2c1.37 1.95 1.37 1.95 3 4.69 3.84 6.21 8.19 11.9 12.7 17.6 1.75 2.24 3.49 4.5 5.22 6.76 1.26 1.65 2.53 3.3 3.8 4.94 1.35 1.75 2.69 3.5 4.02 5.27 4.25 5.59 8.83 10.9 13.5 16.1 2.72 3.1 5.31 6.22 7.74 9.55 3.15 4.27 6.7 8.07 10.4 11.9 1.34 1.41 2.68 2.83 4.02 4.24 0.638 0.673 1.28 1.35 1.93 2.04 2.12 2.25 4.18 4.54 6.24 6.84 4 4.48 8.08 8.87 12.2 13.2 0.63 0.674 1.26 1.35 1.91 2.04 2.9 3.09 5.82 6.12 8.86 9.07 2.54 2.64 2.54 2.64 2.54 4.64 0.639 0.268 1.28 0.536 1.94 0.812 2.06 1.19 2.06 1.19 3.06 4.19 0.66 0.33 1.32 0.66 2 1 0.66 0.33 1.32 0.66 2 1 0.33 0.99 0.66 1.98 1 3 0.572 0.285 1.14 0.57 1.73 0.863 3.13 1.57 5.09 3.81 7.52 6.32 3.66 3.74 7.38 7.32 11.4 10.7 4.16 3.66 8.16 7.49 12.2 11.3 0.626 0.589 1.25 1.18 1.9 1.79 0.562 0.531 1.12 1.06 1.7 1.61 1.75 1.6 1.75 1.6 4.59 3.4v2c0.566 0.246 1.13 0.492 1.71 0.746 2.68 1.47 4.62 3.23 6.85 5.32 4.39 4.02 8.9 7.82 13.5 11.6 3.11 2.54 6.17 5.14 9.22 7.75 4.99 4.25 10.1 8.34 15.2 12.4 3.85 3 7.64 6.06 11.4 9.16 6.82 5.61 13.8 10.9 21 16 2.38 1.67 4.72 3.37 7.03 5.13 9.82 7.43 20 14.4 30.1 21.3 2.4 1.64 4.79 3.29 7.17 4.96 7.97 5.57 16.1 10.9 24.3 16.1 2.6 1.67 5.2 3.34 7.81 5.01 11.1 7.1 22.2 14 33.6 20.5 0.792 0.456 1.58 0.911 2.4 1.38 6.19 3.56 12.4 7.09 18.6 10.6 1.01 0.573 2.01 1.15 3.05 1.74 3.09 1.76 6.18 3.51 9.26 5.26 1.42 0.81 1.42 0.81 2.87 1.64 5.2 2.95 10.4 5.75 15.8 8.36 2.86 1.43 5.71 2.86 8.57 4.29 2.53 1.26 5.06 2.52 7.59 3.77 0.71 0.353 1.42 0.706 2.15 1.07 1.39 0.691 2.78 1.38 4.18 2.07 2.81 1.4 5.53 2.81 8.22 4.43 2.2 1.31 4.28 2.23 6.68 3.12 4.27 1.66 8.42 3.53 12.6 5.5 8.21 3.89 16.6 7.39 25 10.9 1.91 0.798 3.81 1.62 5.7 2.44 3.49 1.48 7.01 2.81 10.6 4.12 7.27 2.69 14.5 5.55 21.6 8.51 4.91 2 9.83 3.68 14.9 5.13 2.15 0.647 4.22 1.4 6.31 2.24 3.44 1.33 6.85 2.14 10.5 2.81 2.85 0.721 5.52 1.78 8.26 2.84 3.81 1.36 7.73 2.31 11.6 3.29 4.69 1.18 9.31 2.38 13.9 4 5.65 1.93 11.5 2.96 17.3 4.07 11.6 2.21 11.6 2.21 16.1 3.52 4.04 1.12 8 1.56 12.2 1.98 8 0.809 8 0.809 9.12 1.94 1.84 0.289 3.7 0.516 5.55 0.719 1.16 0.127 2.33 0.254 3.53 0.385 1.25 0.131 2.5 0.261 3.79 0.396 1.89 0.202 1.89 0.202 3.83 0.408 8.29 0.856 16.6 1.51 24.9 1.8 5.33 0.198 5.33 0.198 6.42 1.29 2.14 0.0992 4.29 0.13 6.44 0.125 1.17 0.00258 2.35 0.00516 3.56 0.00781 2.93 0.0748 2.93 0.0748 5-1.13 1.76-0.176 3.53-0.298 5.29-0.395 29.6-1.79 58.9-6.13 84.7-21.6l2.05-1.21c4.89-2.97 9.42-6.3 13.9-9.79 0.745-0.547 1.49-1.09 2.26-1.66 14.6-10.9 31-30.9 33.7-49.3 0.99-0.66 1.98-1.32 3-2v-2h2c-0.33-1.32-0.66-2.64-1-4h2c-0.33-2.31-0.66-4.62-1-7 1.32-0.33 2.64-0.66 4-1-0.282 2.27-0.576 4.54-0.875 6.81-0.162 1.26-0.325 2.53-0.492 3.83-0.633 3.36-0.633 3.36-2.63 6.36-0.483 1.65-0.915 3.32-1.31 5-2.45 9.34-6.86 17.7-11.7 26h-2c-0.206 0.825-0.412 1.65-0.625 2.5-2.65 6.76-7.15 11.7-12.8 16.2-1.65 1.35-3.11 2.81-4.61 4.32-3.85 3.33-7.71 6.25-12 9-0.839 0.549-1.68 1.1-2.54 1.66-8.78 5.69-17.1 9.69-27 13.1-2.95 1.03-5.84 2.14-8.75 3.29-22.7 8.22-48.3 10.1-72.3 10.1-2.35-0.00535-4.69-2.93e-5 -7.04 0.00635-25.1 0.0126-25.1 0.0126-29.4-2.14-2.22-0.281-4.46-0.512-6.69-0.719-0.658-0.0628-1.32-0.126-1.99-0.19-2.11-0.201-4.21-0.396-6.32-0.591-2.77-0.256-5.54-0.517-8.31-0.781-1.23-0.114-2.47-0.228-3.74-0.346-2.95-0.373-2.95-0.373-4.95-1.37-1.78-0.312-3.57-0.583-5.36-0.832-1.64-0.235-1.64-0.235-3.3-0.475-1.16-0.167-2.33-0.334-3.53-0.506-8.69-1.29-17-2.79-25.5-5.25-4.69-1.32-9.44-2.27-14.2-3.23-3.13-0.713-6.08-1.68-9.12-2.71-3.02-0.778-6.06-1.5-9.1-2.22-2.76-0.742-5.26-1.72-7.9-2.78-2.64-0.792-5.28-1.56-7.94-2.31-7.09-2.05-14-4.35-21-6.91-2.53-0.93-5.06-1.85-7.59-2.76-5.51-2-11-4-16.5-6.01-0.667-0.242-1.33-0.484-2.02-0.733-4.96-1.82-9.83-3.85-14.7-5.9-3.4-1.42-6.82-2.81-10.2-4.2-12.9-5.27-25.7-10.7-38-17.2-2.12-1.07-4.25-2.13-6.38-3.19-20.4-10.2-20.4-10.2-22.9-11.4-1.97-0.982-3.94-1.96-5.92-2.92-6.54-3.22-13-6.57-19.3-10.1-0.658-0.368-1.32-0.737-1.99-1.12-2.95-1.67-5.79-3.38-8.6-5.28-2.89-1.91-5.79-3.4-8.91-4.92-8.13-4.32-16-8.83-23.4-14.3-3.06-2.09-6.25-3.88-9.49-5.68-5.4-3-10.3-6.34-15.3-10.1-4.06-2.93-8.35-5.46-12.6-8.05-3.78-2.34-7.4-4.85-11-7.43-1.69-1.2-3.4-2.37-5.13-3.52-7.31-4.87-14.4-10-21.5-15.2-2.03-1.46-4.07-2.83-6.18-4.17-0.763-0.536-1.53-1.07-2.31-1.62v-2c-0.784-0.309-1.57-0.619-2.38-0.938-2.63-1.06-2.63-1.06-4.62-2.06v-2c-0.727-0.254-1.45-0.508-2.2-0.77-2.98-1.31-5.05-2.84-7.55-4.92-0.861-0.706-1.72-1.41-2.61-2.14-0.871-0.717-1.74-1.43-2.64-2.17-1.66-1.32-3.33-2.63-5-3.94-0.722-0.566-1.44-1.13-2.19-1.71-1.77-1.4-1.77-1.4-3.81-2.35v-2c-0.728-0.245-1.46-0.49-2.21-0.742-3.11-1.4-5.01-3.04-7.48-5.38-4.03-3.73-8.14-7.23-12.5-10.6-2.81-2.3-2.81-2.3-5.59-5.07-6.87-6.77-12.2-9.63-22.1-9.56-1.45 0.0462-2.89 0.0941-4.34 0.144-1.52 0.0129-3.04 0.0214-4.56 0.0256-3.16 0.0197-6.32 0.0747-9.47 0.159-4.05 0.108-8.09 0.155-12.1 0.178-3.88 0.0251-7.76 0.0793-11.6 0.137-0.736 0.00867-1.47 0.0173-2.23 0.0263-2.08 0.03-4.15 0.0806-6.23 0.138-1.18 0.0265-2.36 0.053-3.58 0.0804-2.88 0.198-2.88 0.198-4.72 1.81-1.59 2.21-2.49 4.46-3.48 7-4.64 11.5-10.1 22.5-15.7 33.6h-87c-1.24-4.97 0.194-7.52 2.25-11.9 0.313-0.703 0.626-1.41 0.949-2.13 1.72-3.81 3.63-7.36 5.8-10.9 0.711-1.98 1.39-3.98 2-6h2c0.103-0.681 0.206-1.36 0.312-2.06 1.4-5.96 4.41-11.5 7-17.1 0.619-1.32 1.24-2.64 1.86-3.96 0.307-0.656 0.615-1.31 0.931-1.99 3.16-6.77 6.28-13.5 9.34-20.4 2.48-5.48 5.18-10.8 7.91-16.2 2.39-4.88 4.47-9.85 6.4-14.9 1.94-4.9 4.28-9.56 6.67-14.2 2.18-4.3 4.03-8.65 5.74-13.2 0.84-2.03 0.84-2.03 2.53-4.53 2.16-4.12 2.97-7.87 2.31-12.5-2.14-3.83-4.98-6.84-8-10-1.44-1.58-2.88-3.16-4.31-4.75-0.75-0.824-1.5-1.65-2.27-2.5-4.22-4.81-8.1-9.87-12-14.9-1.43-1.85-2.88-3.69-4.33-5.53-0.922-1.18-1.84-2.36-2.77-3.54-0.434-0.549-0.869-1.1-1.32-1.66-3-3.86-3-3.86-3-6.09h-2c-0.922-1.31-1.83-2.63-2.69-3.99-1.57-2.4-3.24-4.7-4.94-7.01-0.684-0.94-1.37-1.88-2.07-2.85-1.21-1.65-2.41-3.31-3.63-4.96-1.38-1.87-2.74-3.75-4.11-5.63-0.437-0.591-0.874-1.18-1.32-1.79-2.06-2.84-3.76-5.24-4.24-8.77h-2c-1.47-2.1-2.81-4.18-4.12-6.38-0.373-0.603-0.745-1.21-1.13-1.83-2.75-4.53-2.75-4.53-2.75-6.8h-2c-0.672-1.29-1.34-2.58-2-3.88-0.371-0.719-0.742-1.44-1.12-2.18-0.875-1.95-0.875-1.95-0.875-3.95h-2c-1.34-2.27-2.67-4.54-4-6.81-0.382-0.643-0.763-1.29-1.16-1.95-2.84-4.9-2.84-4.9-2.84-8.24-0.99-0.33-1.98-0.66-3-1-1.37-2.26-2.55-4.44-3.69-6.81-0.32-0.63-0.641-1.26-0.971-1.91-1.68-3.41-2.34-5.4-2.34-9.28h-2c-1.18-2.25-2.34-4.5-3.5-6.75-0.334-0.634-0.668-1.27-1.01-1.92-1.76-3.45-2.49-5.38-2.49-9.33h-2c-1.68-4-3.34-8-5-12-0.345-0.824-0.691-1.65-1.05-2.5-2.55-6.2-4.65-12.5-6.71-18.9-1.21-3.65-1.21-3.65-2.83-7.25-1.23-2.94-1.96-5.43-2.48-8.55-0.564-3.43-0.564-3.43-1.89-6.6-1.57-3.33-2.04-6.86-2.67-10.5-0.134-0.745-0.268-1.49-0.406-2.26-0.328-1.83-0.649-3.66-0.969-5.49h-1c-0.049-0.713-0.098-1.43-0.148-2.16-0.434-5.56-1.26-10.5-2.85-15.8-4.16-28.6-2.71-64.9 13-90 1.15-1.98 2.29-3.96 3.44-5.94 6.31-10.8 6.31-10.8 10.6-15.1 0.392-0.743 0.784-1.49 1.19-2.25 3.93-5.96 10.2-10.1 15.9-14.3 1.45-1.08 2.85-2.2 4.24-3.35 3.19-2.47 6.51-4.54 9.96-6.61 0.617-0.378 1.23-0.755 1.87-1.14 7.85-4.71 16.2-7.97 24.8-11 0.83-0.299 1.66-0.598 2.51-0.906 5.06-1.78 10-3.05 15.3-4.01 2.41-0.441 2.41-0.441 5.34-1.51 3.71-1.21 7.34-1.6 11.2-2 4.73-0.109 4.73-0.109 8.69-1.94 3.11-0.0723 6.2 0.00385 9.31 0.0625 2.61 0.249 2.61 0.249 3.69-1.06zm-138 172 1 2zm137 246 1 2zm636 337v1h5v-1h-5z" fill="#FBFCFE"/>
<path transform="translate(541 644)" d="m0 0c2.23-0.00656 4.45-0.0611 6.68-0.118 1.42-0.0088 2.85-0.0148 4.27-0.0176 1.29-0.0123 2.58-0.0247 3.91-0.0374 4.77 1.01 5.74 2.76 8.44 6.73 1.08 2.18 1.08 2.18 1.81 4.31 1.82 4.9 3.95 9.59 6.19 14.3 0.332 0.704 0.665 1.41 1.01 2.13 1.99 4.18 4.03 8.34 6.12 12.5 1.83 3.71 3.38 7.55 4.93 11.4 2.24 5.5 4.63 10.8 7.32 16.1 3.87 7.61 7.26 15.4 10.6 23.2 2.11 4.89 4.33 9.69 6.75 14.4 2.61 5.16 4.99 10.4 7.31 15.7 2.43 5.52 4.92 11 7.66 16.3 2.59 5.17 4.99 10.4 7.42 15.7 0.782 1.69 1.57 3.38 2.36 5.07 2.18 4.69 4.34 9.39 6.41 14.1 3.06 7 6.13 13.9 9.84 20.6 2.55 4.6 4.41 9.09 6.1 14.1 1.71 4.45 3.9 8.62 6.08 12.9 2.86 5.61 5.36 11.3 7.75 17.1 1.25 2.83 2.7 5.36 4.32 7.99 0.715 1.63 1.43 3.25 2.11 4.89 1.54 3.63 3.24 7.18 4.91 10.8 0.988 2.36 0.988 2.36 0.988 4.36 0.66 0.33 1.32 0.66 2 1 1.12 2.06 1.12 2.06 2 4-2.93-1.31-4.75-2.75-7-5-0.66-0.33-1.32-0.66-2-1-2.19-1.09-3.27-2.27-5-4-1.78-1.52-3.57-3.02-5.38-4.5-0.936-0.773-1.87-1.55-2.84-2.34-2.72-2.2-2.72-2.2-5.64-3.81-0.709-0.443-1.42-0.887-2.15-1.34v-2h-2v-2c-0.54-0.232-1.08-0.464-1.64-0.703-3.04-1.67-5.56-3.8-8.18-6.05-0.84-0.715-0.84-0.715-1.7-1.44-5.87-5.04-11.5-10.3-17.1-15.6-3.1-2.91-6.25-5.74-9.48-8.51-3.22-2.79-6.35-5.67-9.5-8.54-1.68-1.48-3.42-2.9-5.2-4.26-0.726-0.612-1.45-1.22-2.2-1.86v-2c-0.639-0.268-1.28-0.536-1.94-0.812-2.06-1.19-2.06-1.19-3.06-4.19-0.66-0.33-1.32-0.66-2-1-2-1-2-1-3-4-0.66-0.33-1.32-0.66-2-1-2-1-2-1-3-4-0.66-0.33-1.32-0.66-2-1-2-1-2-1-3-4-0.592-0.295-1.18-0.59-1.79-0.895-2.88-1.44-4.42-3.36-6.52-5.79-2.69-3.07-5.39-6.08-8.31-8.94-2.91-2.86-5.58-5.87-8.24-8.96-1.66-1.88-3.35-3.72-5.08-5.54-6.08-6.43-11.8-12.9-17.2-20-2.52-3.27-5.09-6.41-7.88-9.46-7.27-8.01-13.6-16.9-19.9-25.7-1.46-1.99-2.99-3.92-4.56-5.83-7.17-8.72-7.17-8.72-6.84-13.1 1.11-4.04 3.13-7.81 5.12-11.5 1.29-2.35 1.29-2.35 2.2-4.78 1.29-3.21 2.85-6.23 4.43-9.3 2.43-4.79 4.61-9.6 6.53-14.6 1.68-4.14 3.6-8.17 5.52-12.2 1.99-4.2 3.85-8.43 5.55-12.7 3.98-6.77 11.9-5.29 18.7-5.29zm10.3 1.56v1h7v-1h-7z" fill="#FBFCFE"/>
<path transform="translate(834,576)" d="m0 0c0.763 0.309 1.53 0.619 2.31 0.938 1.88 0.741 3.77 1.42 5.69 2.06v2c1.32 0.33 2.64 0.66 4 1v2h4c0.33 0.66 0.66 1.32 1 2 1.99 1.01 3.99 2.01 6 3 2.17 1.42 4.32 2.88 6.44 4.38 0.565 0.396 1.13 0.793 1.71 1.2 3.97 2.78 7.92 5.59 11.8 8.42l-2 1c-2.5-1.38-4.86-2.82-7.25-4.38-0.708-0.452-1.42-0.903-2.15-1.37-2.21-1.41-4.41-2.83-6.6-4.26-2.01-1.29-4.02-2.58-6.03-3.88-1.21-0.779-2.42-1.56-3.63-2.34-3.1-2.01-3.1-2.01-6.34-3.78v-2c-1.65-0.33-3.3-0.66-5-1v-2c-1.32-0.66-2.64-1.32-4-2v-1z" fill="#434444"/>
<path transform="translate(437,418)" d="m0 0c2.54 0.0909 5.04 0.237 7.56 0.438 1.07 0.0783 1.07 0.0783 2.15 0.158 1.76 0.13 3.52 0.267 5.28 0.404v1c-1.13 0.133-2.26 0.266-3.43 0.402-1.48 0.178-2.96 0.357-4.45 0.535-1.12 0.131-1.12 0.131-2.26 0.264-4.06 0.432-4.06 0.432-7.86 1.8-1.54 0.0695-3.08 0.0845-4.62 0.0625-1.23-0.0135-1.23-0.0135-2.48-0.0273-0.94-0.0174-0.94-0.0174-1.9-0.0352-0.33-1.32-0.66-2.64-1-4 1.28 0.0174 1.28 0.0174 2.59 0.0352 1.66 0.0135 1.66 0.0135 3.35 0.0273 1.65 0.0174 1.65 0.0174 3.34 0.0352 2.64 0.215 2.64 0.215 3.72-1.1z" fill="#E8E9EB"/>
<path transform="translate(1222,1072)" d="m0 0c1.46 2.91 0.635 4.96 0.0625 8.12-0.195 1.1-0.389 2.19-0.59 3.32-0.234 1.26-0.234 1.26-0.473 2.55h-4v-2h2c-0.33-1.32-0.66-2.64-1-4h2c-0.33-2.31-0.66-4.62-1-7 0.99-0.33 1.98-0.66 3-1z" fill="#E8E9EA"/>
<path transform="translate(788,731)" d="m0 0h1v29h-1v-29z"/>
<path transform="translate(453,419)" d="m0 0h24v1c-7.92 0.33-15.8 0.66-24 1v-2z"/>
<path transform="translate(788,859)" d="m0 0h1v16h-1v-16z"/>
<path transform="translate(928,986)" d="m0 0h13v1h-13v-1z"/>
<path transform="translate(386,986)" d="m0 0h10v1h-10v-1z"/>
<path transform="translate(479,420)" d="m0 0h8v1h-8v-1z"/>
<path transform="translate(1224,1053)" d="m0 0h1v7h-1v-7z"/>
<path transform="translate(1223,1066)" d="m0 0h1v6h-1v-6z" fill="#FCFDFF"/>
<path transform="translate(1223,1060)" d="m0 0h1v5h-1v-5z"/>
<path transform="translate(1204,1028)" d="m0 0h1v5h-1v-5z"/>
<path transform="translate(965,706)" d="m0 0h1v5h-1v-5z"/>
<path transform="translate(788,656)" d="m0 0 1 4z"/>
<path transform="translate(878,605)" d="m0 0c0.99 0.33 1.98 0.66 3 1h-3v-1z"/>
<path transform="translate(1024,1178)" d="m0 0c3 1 3 1 3 1z"/>
<path transform="translate(565,473)" d="m0 0c3 1 3 1 3 1z"/>
<path transform="translate(787,984)" d="m0 0 2 1z"/>
<path transform="translate(792,856)" d="m0 0 2 1z"/>
<path transform="translate(501,473)" d="m0 0 2 1z"/>
<path transform="translate(427,423)" d="m0 0 2 1z"/>
</svg>
